<?xml version="1.0" standalone="no"?><!DOCTYPE svg PUBLIC "-//W3C//DTD SVG 1.1//EN" "http://www.w3.org/Graphics/SVG/1.1/DTD/svg11.dtd"><svg t="1614822000418" class="icon" viewBox="0 0 1024 1024" version="1.1" xmlns="http://www.w3.org/2000/svg" p-id="4363" xmlns:xlink="http://www.w3.org/1999/xlink" width="64" height="64"><defs><style type="text/css"></style></defs><path d="M701.4 1012c-33.5 0-83.8-6.9-131-37.3l-4.6-3-6.9 1.5c-15.2 3-31.2 4.6-45.7 4.6-16 0-30.5-1.5-44.9-4.6l-9.9-2.3-4.6 3c-48.7 30.5-102.1 37.3-137.1 37.3-22.8 0-39.6-2.3-45.7-3.8h-1.5c-36.6-8.4-63.2-19-83-32-28.2-18.3-35.8-40.4-36.6-54.8-3-31.2 17.5-62.5 60.9-92.9 6.1-4.6 12.2-8.4 18.3-11.4l1.5-0.8-0.6-1.5c-8.4-12.9-16.8-28.9-25.1-46.5l-0.8-2.3-1.5 1.5c-19 20.6-38.1 31.2-57.1 31.2-3 0-5.3 0-8.4-0.8-45.7-6.9-59.4-64.7-61.7-76.9-20.6-96.7 43.4-192.7 72.4-230l0.8-0.8v-0.8c-22.8-53.3 12.2-105.9 23.6-121.1v-1.6c1.5-109.7 34.3-196.5 96.7-258.9C348 28.8 449.3 14.3 489.7 12H534.8c31.2 1.5 139.4 13.7 220.9 95.2 62.5 62.5 95.2 149.3 96.7 258.9v1.6c11.4 14.5 46.5 67 23.6 121.1v0.8l0.8 0.8c28.2 36.6 92.2 133.3 72.4 230-3 16-18.3 70.1-61.7 76.9-3 0.8-5.3 0.8-8.4 0.8-19 0-38.8-10.7-57.1-31.2l-1.5-1.5-0.8 2.3c-7.6 16.8-16 32.7-25.1 46.5l-0.8 1.5 1.5 0.8c6.9 3.8 12.9 7.6 18.3 11.4 43.4 30.5 64 61.7 60.9 92.9-1.5 14.5-9.1 36.6-36.6 54.8-19.8 12.9-46.5 23.6-82.3 32-3.2-0.9-23.7 4.4-54.2 4.4z m-96.7-90.6c34.3 22.1 71.6 27.4 96.7 27.4 21.3 0 35-3 35-3 54.1-12.9 67.8-26.7 70.8-30.5l0.8-0.8v-0.8c-1.5-4.6-8.4-16-36.6-35-8.4-6.1-22.8-14.5-41.9-23.6l-3-1.5c-20.6-9.1-24.4-35.8-7.6-51l1.5-1.5c27.4-23.6 51.8-92.2 58.6-113.5l0.8-3c7.6-25.9 42.7-29.7 56.4-6.1l1.5 3c17.5 32 29.7 44.9 35.8 50.3l1.5 1.5 0.8-1.5c3-5.3 6.9-15.2 8.4-22.1 19.8-92.2-71.6-192.7-73.1-193.5l-0.8-0.8c-9.9-11.4-10.7-28.2-1.5-39.6l0.8-0.8c6.1-7.6 12.9-19.8 3.8-42.7-5.3-13.7-14.5-25.1-18.3-28.9-5.3-6.1-8.4-13.7-8.4-22.1 0.8-97.5-25.9-173.6-77.7-225.4C645 92 557.4 81.3 530.8 79h-38.1c-25.9 1.5-115 11.4-180.5 76.9-51.8 51.8-77.7 128-77.7 225.4v0.8c0 7.6-3 16-8.4 21.3-3.8 4.6-12.9 15.2-18.3 29.7-9.1 22.8-3 34.3 3.8 42.7l0.8 0.8c9.1 11.4 9.1 28.9-1.5 39.6l-0.8 0.8c-0.8 0.8-92.2 101.3-72.4 192.7 1.5 7.6 5.3 16.8 8.4 22.8l0.8 1.5 1.5-1.5c6.9-6.1 19-19.8 35.8-50.3l1.5-3c12.9-23.6 48.7-19.8 56.4 6.1l0.8 3c9.9 32.7 34.3 92.2 58.6 113.5l1.5 1.5c16.8 14.5 12.9 41.9-7.6 51-1.5 0.8-2.3 0.8-2.3 0.8-0.8 0-22.8 10.7-42.7 24.4-28.2 19-34.3 30.5-36.6 35v0.8l0.8 0.8c3 3.8 16 16.8 67.8 29.7 0.8 0 1.5 0.8 3 0.8 6.1 0.8 16.8 2.3 31.2 2.3 27.4 0 67.8-4.6 103.6-27.4l19-10.7c6.1-3.8 13.7-4.6 20.6-3l20.6 3.8c6.9 1.5 18.3 3 32.7 3 10.7 0 22.1-0.8 34.3-3l30.5-5.3h1.5l25.3 15.1z" p-id="4364"></path></svg>