<svg t="1614822646899" class="icon" viewBox="0 0 1024 1024" version="1.1" xmlns="http://www.w3.org/2000/svg" p-id="14771" width="64" height="64"><path d="M888.832 590.08H857.6a30.054 30.054 0 0 1-29.286-29.286c0-15.616 13.67-29.287 29.286-29.287h31.232c13.67 0 17.562-9.728 19.558-13.67 1.946-3.891 3.892-13.67-3.942-23.399L525.67 115.61c-7.833-7.783-21.504-7.783-31.232 0L115.61 494.438a18.944 18.944 0 0 0-3.892 23.399c1.946 3.942 7.834 13.67 19.559 13.67h39.014c15.616 0 29.287 13.67 29.287 29.287a30.054 30.054 0 0 1-29.287 29.286h-39.014c-33.229 0-60.57-19.456-74.24-48.794-11.674-31.232-5.837-64.41 17.613-87.859L453.427 74.65c31.232-31.232 82.023-31.232 113.255 0l378.777 378.777c23.45 23.45 29.287 56.627 17.562 87.86-13.67 29.286-40.96 48.793-74.189 48.793zM381.184 972.8H246.477a108.34 108.34 0 0 1-107.418-107.366V572.57c0-15.668 13.67-29.338 29.287-29.338 15.616 0 29.286 13.67 29.286 29.286v292.864c0 27.341 21.504 48.845 48.845 48.845h134.656c15.667 0 29.337 13.67 29.337 29.287a30.054 30.054 0 0 1-29.286 29.286z m243.354-10.598a30.72 30.72 0 0 1-7.117 0.819 30.054 30.054 0 0 1-29.287-29.287V650.598h-156.16v283.136a30.054 30.054 0 0 1-29.337 29.287 28.774 28.774 0 0 1-29.287-29.287V650.598c0-31.232 25.396-58.521 58.573-58.521h156.211c31.232 0 58.573 25.344 58.573 58.573v263.577h126.976c27.29 0 48.794-21.504 48.794-48.793V709.222c0-15.616 13.67-29.286 29.286-29.286 15.616 0 29.287 13.67 29.287 29.286v156.16A107.06 107.06 0 0 1 773.632 972.8H646.707a29.491 29.491 0 0 1-22.17-10.598z" p-id="14772"></path></svg>